<?xml version="1.0" encoding="utf-8"?>
<!-- Generator: Adobe Illustrator 18.0.0, SVG Export Plug-In . SVG Version: 6.00 Build 0)  -->
<!DOCTYPE svg PUBLIC "-//W3C//DTD SVG 1.1//EN" "http://www.w3.org/Graphics/SVG/1.1/DTD/svg11.dtd">
<svg version="1.1" id="Layer_1" xmlns="http://www.w3.org/2000/svg" xmlns:xlink="http://www.w3.org/1999/xlink" x="0px" y="0px"
	 width="500px" height="500px" viewBox="0 0 500 500" enable-background="new 0 0 500 500" xml:space="preserve">
<g>
	<path d="M287.7,318.4c-5.3-7.1-11.2-13.7-17.6-19.8c-6.4-6.1-12.8-11.7-19.2-16.7c-6.4-5-12.3-9.8-17.6-14.4
		c-5.3-4.6-9.6-9.4-12.9-14.4c-3.3-5-5-10.1-5-15.3c0-7.2,2.3-14,6.9-20.3c4.6-6.3,10.2-12.4,16.8-18.3c6.6-5.9,13.2-12.4,19.8-19.4
		c6.6-7,12.2-16.3,16.8-27.8c4.6-11.5,6.9-24.7,6.9-39.5c0-17.6-3.9-34.6-11.7-50.8c-7.8-16.2-18.8-28.8-33.1-37.9h40.6L319.1,0
		H187.8c-18.6,0-37.4,2-56.2,6c-27.8,6.2-51.3,20.4-70.3,42.5c-19,22.1-28.5,47.2-28.5,75.3c0,29.6,10.7,54.3,32,73.9
		c21.3,19.6,46.9,29.4,76.8,29.4c6,0,13-0.5,21-1.5c-0.4,1.6-1.1,3.8-2.1,6.5c-1,2.7-1.8,4.9-2.4,6.5s-1.1,3.6-1.5,5.9
		c-0.4,2.3-0.6,4.7-0.6,7.1c0,13.2,6.4,28.1,19.2,44.8c-15.2,0.4-30.2,1.8-45.1,4.1c-14.8,2.3-30.3,5.9-46.6,10.8
		c-16.2,4.9-30.7,12-43.6,21.3c-12.8,9.3-22.4,20.4-28.8,33.2C3.7,380.5,0,394,0,406.3c0,13.4,3,25.6,9,36.5
		c6,10.9,13.7,19.8,23.1,26.7c9.4,6.9,20.3,12.7,32.6,17.4c12.3,4.7,24.5,8.1,36.7,10.1s24.1,3,35.9,3c53.7,0,95.8-13.1,126.2-39.4
		c28-24.4,42.1-52.7,42.1-84.7c0-11.4-1.7-22.1-5-32C297.3,334,293,325.5,287.7,318.4z M171.9,209.1c-10.2,0-19.9-2.6-29.1-7.8
		c-9.2-5.2-17-12-23.4-20.3c-6.4-8.3-12-17.7-16.8-28.1c-4.8-10.4-8.4-20.8-10.7-31.2c-2.3-10.4-3.5-20.3-3.5-29.7
		c0-19.2,5.1-35.8,15.3-49.6s24.6-20.7,43.3-20.7c13.2,0,25.2,4.1,35.9,12.3s19.1,18.6,25.2,31.2c6.1,12.6,10.8,25.7,14.1,39.2
		c3.3,13.5,5,26.3,5,38.3c0,20-4.4,36.1-13.1,48.2C205.4,203.1,191.3,209.1,171.9,209.1z M255,434.8c-5.5,9.4-13,16.8-22.4,22.1
		c-9.4,5.3-19.5,9.2-30.2,11.7c-10.7,2.5-22,3.8-33.8,3.8c-12.8,0-25.5-1.5-38.2-4.5c-12.6-3-24.7-7.6-36.2-13.7
		c-11.5-6.1-20.8-14.5-27.9-25.2c-7.1-10.7-10.7-22.9-10.7-36.5c0-12,2.7-22.7,8.1-32.1s12.3-16.9,20.7-22.5
		c8.4-5.6,18.2-10.2,29.4-13.8c11.2-3.6,22-6.1,32.5-7.5c10.4-1.4,21-2.1,31.8-2.1c6.6,0,11.6,0.2,15,0.6c1.2,0.8,4.3,2.9,9.2,6.3
		c4.9,3.4,8.2,5.7,9.9,6.9c1.7,1.2,4.8,3.5,9.3,6.9c4.5,3.4,7.7,6,9.6,7.7c1.9,1.7,4.7,4.3,8.3,7.7c3.6,3.4,6.3,6.4,8,8.9
		c1.7,2.5,3.8,5.6,6.3,9.2c2.5,3.6,4.3,7.1,5.3,10.4c1,3.3,2,6.9,2.9,10.8c0.9,3.9,1.3,8,1.3,12.2
		C263.2,414.4,260.5,425.4,255,434.8z"/>
	<polygon points="423.1,76.9 423.1,0 384.6,0 384.6,76.9 307.7,76.9 307.7,115.4 384.6,115.4 384.6,192.3 423.1,192.3 423.1,115.4 
		500,115.4 500,76.9 	"/>
</g>
</svg>
