<?xml version="1.0" encoding="iso-8859-1"?>
<!-- Generator: Adobe Illustrator 17.1.0, SVG Export Plug-In . SVG Version: 6.00 Build 0)  -->
<!DOCTYPE svg PUBLIC "-//W3C//DTD SVG 1.1//EN" "http://www.w3.org/Graphics/SVG/1.1/DTD/svg11.dtd">
<svg version="1.1" id="Layer_1" xmlns="http://www.w3.org/2000/svg" xmlns:xlink="http://www.w3.org/1999/xlink" x="0px" y="0px"
	 width="500px" height="500px" viewBox="0 0 500 500" style="enable-background:new 0 0 500 500;" xml:space="preserve">
<path d="M436.94,0H63.06C28.224,0,0,27.989,0,62.496v375.008C0,472.028,28.224,500,63.06,500h373.88
	c34.836,0,63.06-27.972,63.06-62.496V62.496C500,27.989,471.775,0,436.94,0z M352.871,250.018
	c0,56.219-46.153,101.959-102.862,101.959c-56.727,0-102.88-45.74-102.88-101.959c0-16.91,4.24-32.809,11.612-46.872
	c17.167-32.671,51.587-55.087,91.267-55.087c39.663,0,74.101,22.398,91.25,55.087C348.631,217.192,352.871,233.107,352.871,250.018z
	 M443.69,418.588c0,14.15-11.577,25.622-25.854,25.622H84.38c-14.277,0-25.854-11.473-25.854-25.622V203.129h42.657
	c-4.759,14.8-7.372,30.527-7.372,46.872c0,85.34,70.052,154.765,156.162,154.765s156.162-69.425,156.162-154.765
	c0-16.344-2.613-32.071-7.372-46.872h44.906v215.459L443.69,418.588L443.69,418.588z M443.69,122.454
	c0,14.15-11.577,25.622-25.854,25.622h-39.161c-14.277,0-25.854-11.474-25.854-25.622V80.109c0-11.233,7.337-20.667,17.496-24.13
	h47.503c14.277,0,25.854,11.474,25.854,25.622v40.852L443.69,122.454L443.69,122.454z"/>
<g>
</g>
<g>
</g>
<g>
</g>
<g>
</g>
<g>
</g>
<g>
</g>
<g>
</g>
<g>
</g>
<g>
</g>
<g>
</g>
<g>
</g>
<g>
</g>
<g>
</g>
<g>
</g>
<g>
</g>
</svg>
