<?xml version="1.0" encoding="iso-8859-1"?>
<!-- Generator: Adobe Illustrator 17.1.0, SVG Export Plug-In . SVG Version: 6.00 Build 0)  -->
<!DOCTYPE svg PUBLIC "-//W3C//DTD SVG 1.1//EN" "http://www.w3.org/Graphics/SVG/1.1/DTD/svg11.dtd">
<svg version="1.1" id="Layer_1" xmlns="http://www.w3.org/2000/svg" xmlns:xlink="http://www.w3.org/1999/xlink" x="0px" y="0px"
	 width="500px" height="500px" viewBox="0 0 500 500" style="enable-background:new 0 0 500 500;" xml:space="preserve">
<path d="M500,94.934c-18.399,8.16-38.166,13.668-58.917,16.151c21.182-12.694,37.445-32.799,45.108-56.753
	c-19.824,11.757-41.773,20.292-65.138,24.892c-18.718-19.936-45.38-32.396-74.881-32.396c-56.651,0-102.584,45.933-102.584,102.584
	c0,8.038,0.909,15.87,2.651,23.374c-85.252-4.281-160.836-45.118-211.435-107.184C25.978,80.76,20.92,98.373,20.92,117.175
	c0,35.59,18.109,66.984,45.633,85.383c-16.816-0.534-32.63-5.143-46.467-12.834c-0.009,0.431-0.009,0.862-0.009,1.293
	c0,49.699,35.357,91.163,82.292,100.588c-8.61,2.342-17.668,3.597-27.028,3.597c-6.614,0-13.041-0.646-19.299-1.836
	c13.05,40.753,50.936,70.412,95.829,71.246c-35.103,27.515-79.341,43.91-127.401,43.91c-8.281,0-16.441-0.487-24.47-1.434
	c45.399,29.108,99.314,46.083,157.248,46.083c188.688,0,291.862-156.311,291.862-291.871c0-4.45-0.103-8.872-0.3-13.275
	C468.86,133.569,486.247,115.497,500,94.934z"/>
<g>
</g>
<g>
</g>
<g>
</g>
<g>
</g>
<g>
</g>
<g>
</g>
<g>
</g>
<g>
</g>
<g>
</g>
<g>
</g>
<g>
</g>
<g>
</g>
<g>
</g>
<g>
</g>
<g>
</g>
</svg>
